<svg width="35" height="33" viewBox="0 0 35 33" fill="none" xmlns="http://www.w3.org/2000/svg">
<path d="M34.6003 15.0561C34.0883 16.7201 32.7763 18.0001 30.6643 18.8961C28.5523 19.7281 25.9603 20.1441 22.8883 20.1441C26.9203 21.6161 28.9363 23.7601 28.9363 26.5761C28.9363 27.1521 28.8403 27.7921 28.6483 28.4961C28.2003 30.0321 27.4003 31.1841 26.2483 31.9521C25.1603 32.6561 23.9443 33.0081 22.6003 33.0081C20.6803 33.0081 19.1443 32.1121 17.9923 30.3201C16.9043 28.5281 16.2963 26.2241 16.1683 23.4081C14.8883 26.4801 13.3523 28.8481 11.5603 30.5121C9.8323 32.1761 8.1043 33.0081 6.3763 33.0081C5.2243 33.0081 4.2003 32.5921 3.3043 31.7601C2.4723 30.8641 2.0563 29.7761 2.0563 28.4961C2.0563 26.3201 2.8563 24.5921 4.4563 23.3121C6.0563 22.0321 8.1043 20.9761 10.6003 20.1441C7.4643 20.1441 5.0643 19.6001 3.4003 18.5121C1.7363 17.4241 0.904297 16.0481 0.904297 14.3841C0.904297 13.8721 1.0003 13.3281 1.1923 12.7521C1.5763 11.4081 2.3123 10.3841 3.4003 9.68011C4.5523 8.97611 5.8323 8.62411 7.2403 8.62411C8.7123 8.62411 9.9603 9.00811 10.9843 9.77611C12.0723 10.4801 13.1283 11.6001 14.1523 13.1361C14.0883 12.8161 13.9603 12.1761 13.7683 11.2161C13.5763 10.2561 13.4803 9.29611 13.4803 8.33611C13.4803 6.09611 14.0883 4.24011 15.3043 2.76811C16.5843 1.23211 18.2163 0.464111 20.2003 0.464111C21.5443 0.464111 22.6323 0.912111 23.4643 1.80811C24.2963 2.64011 24.7123 3.79211 24.7123 5.26411C24.7123 6.16011 24.5843 6.99211 24.3283 7.76011C24.1363 8.40011 23.7523 9.29611 23.1763 10.4481C22.6003 11.5361 22.0563 12.4641 21.5443 13.2321C23.2083 11.6961 24.7443 10.5441 26.1523 9.77611C27.5603 9.00811 28.9683 8.62411 30.3763 8.62411C31.8483 8.62411 32.9683 9.07211 33.7363 9.96811C34.5043 10.8641 34.8883 11.9521 34.8883 13.2321C34.8883 13.8721 34.7923 14.4801 34.6003 15.0561Z" fill="#42A0F3"/>
</svg>
